<svg viewBox="0 0 300 65" xmlns="http://www.w3.org/2000/svg" xmlns:xlink="http://www.w3.org/1999/xlink"><linearGradient id="a" gradientUnits="userSpaceOnUse" x1="19.54" x2="19.54" y1="17.8" y2="64.7"><stop offset="0" stop-color="#fff"/><stop offset=".6" stop-color="#f2f9fe"/><stop offset="1" stop-color="#e7f4fe"/></linearGradient><linearGradient id="b" x1="57.7" x2="57.7" xlink:href="#a" y1="7.4" y2="64.7"/><linearGradient id="c" x1="97.63" x2="97.63" xlink:href="#a" y1="1.27" y2="63.46"/><linearGradient id="d" x1="144.09" x2="144.09" xlink:href="#a" y1="17.8" y2="64.7"/><linearGradient id="e" x1="184.82" x2="184.82" xlink:href="#a" y1="18.06" y2="63.46"/><linearGradient id="f" x1="222.8" x2="222.8" xlink:href="#a" y1="1.27" y2="64.53"/><linearGradient id="g" x1="257.36" x2="257.36" xlink:href="#a" y1=".3" y2="63.46"/><linearGradient id="h" x1="284.94" x2="284.94" xlink:href="#a" y1="7.4" y2="64.7"/><path d="m0 0h300v65h-300z" fill="none"/><path d="m37.67 59.64a22.72 22.72 0 0 1 -7.24 3.6 32 32 0 0 1 -9.73 1.46q-10.75 0-15.7-6.26t-5-17.19q0-11.73 5.6-17.59t15.72-5.86a24.11 24.11 0 0 1 6.57.89 15.27 15.27 0 0 1 5.69 2.93 14.43 14.43 0 0 1 4 5.51 21.7 21.7 0 0 1 1.51 8.61c0 1.25-.08 2.58-.22 4s-.37 2.9-.67 4.44h-26.65c.18 3.73 1.14 6.55 2.89 8.44s4.57 2.84 8.48 2.84a19 19 0 0 0 10.93-3.37zm-16.53-32.64q-4.53 0-6.7 2.71a13.26 13.26 0 0 0 -2.62 7.29h16.52q.36-4.8-1.47-7.38t-5.73-2.62z" fill="url(#a)"/><path d="m42.64 19h6.13v-8.31l11.55-3.29v11.6h10.84v9.77h-10.84v17.1q0 4.62.93 6.62a3.51 3.51 0 0 0 3.51 2 11.5 11.5 0 0 0 3.07-.36 20.49 20.49 0 0 0 2.88-1.06l2.05 8.93a29.23 29.23 0 0 1 -5.6 1.95 26.26 26.26 0 0 1 -6.48.8q-6.13 0-9-3.15t-2.91-10.4v-22.39h-6.13z" fill="url(#b)"/><path d="m105.45 63.46v-25.23c0-3.61-.51-6.22-1.51-7.82s-2.84-2.41-5.51-2.41a8.29 8.29 0 0 0 -5.37 2 9.57 9.57 0 0 0 -3.25 5.11v28.35h-11.54v-62.19h11.54v22.73h.36a15.94 15.94 0 0 1 5.24-4.53 16.41 16.41 0 0 1 7.91-1.69 18 18 0 0 1 6 .89 9.69 9.69 0 0 1 4.31 2.93 13.26 13.26 0 0 1 2.57 5.55 37.29 37.29 0 0 1 .85 8.66v27.65z" fill="url(#c)"/><path d="m162.22 59.64a22.79 22.79 0 0 1 -7.25 3.6 31.89 31.89 0 0 1 -9.72 1.46q-10.75 0-15.73-6.26t-5-17.19q0-11.73 5.6-17.59t15.72-5.86a24.11 24.11 0 0 1 6.57.89 15.27 15.27 0 0 1 5.69 2.93 14.43 14.43 0 0 1 4 5.51 21.7 21.7 0 0 1 1.51 8.61 38.21 38.21 0 0 1 -.23 4c-.14 1.42-.37 2.9-.66 4.44h-26.62c.17 3.73 1.14 6.55 2.88 8.44s4.58 2.84 8.49 2.84a19 19 0 0 0 10.93-3.37zm-16.53-32.64q-4.53 0-6.71 2.71a13.42 13.42 0 0 0 -2.62 7.29h16.53q.35-4.8-1.47-7.38t-5.73-2.62z" fill="url(#d)"/><path d="m196.33 29.88a15.14 15.14 0 0 0 -5-1 8.1 8.1 0 0 0 -5.19 1.65 7.82 7.82 0 0 0 -2.8 4.22v28.71h-11.53v-44.46h9l1.33 5.86h.36a12.15 12.15 0 0 1 4.09-5.06 10.39 10.39 0 0 1 6-1.78 16.88 16.88 0 0 1 5.24 1z" fill="url(#e)"/><path d="m203 1.27h11.55v21.32h.35a13.11 13.11 0 0 1 4.8-3.37 16.47 16.47 0 0 1 6.48-1.22q8 0 12.21 5.46t4.22 16.66q0 12-5.91 18.21t-16.21 6.22a53.69 53.69 0 0 1 -10.39-.94 31.18 31.18 0 0 1 -7.1-2.1zm19.8 26.48a8 8 0 0 0 -5.2 1.64 10.33 10.33 0 0 0 -3.06 4.75v19.37a10.85 10.85 0 0 0 3.06 1 23 23 0 0 0 3.51.26 8.22 8.22 0 0 0 7.15-3.42q2.44-3.42 2.45-10.88 0-12.73-7.91-12.72z" fill="url(#f)"/><path d="m250 6.52a5.83 5.83 0 0 1 1.91-4.4 7.3 7.3 0 0 1 5.27-1.82 8 8 0 0 1 5.46 1.82 5.61 5.61 0 0 1 2.09 4.4 5.35 5.35 0 0 1 -2.09 4.3 8.24 8.24 0 0 1 -5.46 1.74 7.54 7.54 0 0 1 -5.28-1.74 5.54 5.54 0 0 1 -1.9-4.3zm1.67 12.48h11.55v44.46h-11.55z" fill="url(#g)"/><path d="m269.88 19h6.12v-8.31l11.56-3.29v11.6h10.84v9.77h-10.84v17.1q0 4.62.94 6.62a3.51 3.51 0 0 0 3.5 2 11.5 11.5 0 0 0 3.07-.36 20.58 20.58 0 0 0 2.93-1.06l2 8.93a29 29 0 0 1 -5.6 1.95 26.26 26.26 0 0 1 -6.48.8q-6.14 0-9-3.15t-2.92-10.4v-22.39h-6.13z" fill="url(#h)"/></svg>